<?xml version="1.0" encoding="utf-8"?>
<!-- Generator: Adobe Illustrator 26.3.1, SVG Export Plug-In . SVG Version: 6.00 Build 0)  -->
<svg version="1.1" id="Layer_1" xmlns="http://www.w3.org/2000/svg" xmlns:xlink="http://www.w3.org/1999/xlink" x="0px" y="0px"
	 viewBox="0 0 950 214.9" style="enable-background:new 0 0 950 214.9;" xml:space="preserve">
<style type="text/css">
	.st0{fill-rule:evenodd;clip-rule:evenodd;fill:#0F1826;}
</style>
<g>
	<path class="st0" d="M182.7,119.6l-69,39.9l36.4-83l32.6,18.8C192.1,100.7,192.1,114.2,182.7,119.6"/>
	<g>
		<path class="st0" d="M0,121.6V14C0,3.2,11.7-3.5,21,1.9l20.6,11.9L0,121.6z"/>
	</g>
	<g>
		<polygon class="st0" points="87.1,169.7 82.9,37.6 131.6,65.8 		"/>
	</g>
	<g>
		<path class="st0" d="M60.2,27l3.4,161.4L21,213c-9.3,5.4-21-1.3-21-12.1V192L60.2,27z"/>
	</g>
	<path class="st0" d="M890.7,177.9c-34.4,0-59.5-23.1-59.5-55.7c0-32.6,25.1-55.7,59.5-55.7c34.4,0,59.3,23.1,59.3,55.7
		C950,154.8,925,177.9,890.7,177.9 M890.7,92.2c-15.7,0-27.7,11.3-27.7,29.9c0,18.7,12.1,29.9,27.7,29.9c15.7,0,27.5-11.3,27.5-29.9
		C918.2,103.5,906.4,92.2,890.7,92.2 M739,131c3,13.5,14.5,21.7,31,21.7c11.5,0,19.7-3.4,27.1-10.5l16.7,18.1
		c-10,11.5-25.1,17.5-44.6,17.5c-37.4,0-61.7-23.5-61.7-55.7c0-32.4,24.7-55.7,57.7-55.7c31.8,0,56.3,21.3,56.3,56.1
		c0,2.4-0.4,5.8-0.6,8.4H739z M765.4,90.2c-14.3,0-24.5,8.6-26.7,22.5h53.3C789.7,99.1,779.4,90.2,765.4,90.2 M665.7,119.2
		c0-17.5-7.8-25.5-20.5-25.5c-14.1,0-23.9,9-23.9,28.3v54.3h-31.4v-57.1c0-17.5-7.4-25.5-20.5-25.5c-13.9,0-23.7,9-23.7,28.3v54.3
		h-31.4V68.1h29.9v12.5c8-9.2,20.1-14.1,34-14.1c15.1,0,27.9,5.8,35.6,17.7c8.6-11.1,22.7-17.7,39-17.7c25.7,0,44.2,14.9,44.2,47.8
		v61.9h-31.4V119.2z M447.1,178c-25.3,0-48.3-8.5-48.3-32.9c0-19.1,13.5-32.4,46.4-32.4h24.9c0-13.5-8-21.3-24.9-21.3
		c-11.5,0-23.3,3.8-31.2,10l-11.3-21.9c11.9-8.4,29.3-13.1,46.6-13.1c33,0,52.1,15.3,52.1,48v11.2C501.6,145.2,497.4,178,447.1,178
		 M470.2,131h-21.5c-14.7,0-19.3,5.4-19.3,12.7c0,7.8,6.6,11.5,17.7,11.5c13.6,0,23.1-7.9,23.1-14.7V131z M287.2,90.8v85.4h-32.2
		V35.6H282l69.9,85.4V35.6h32.2v140.7h-26.7L287.2,90.8z"/>
</g>
</svg>
