<?xml version="1.0" encoding="utf-8"?>
<!-- Generator: Adobe Illustrator 26.3.1, SVG Export Plug-In . SVG Version: 6.00 Build 0)  -->
<svg version="1.1" id="Layer_1" xmlns="http://www.w3.org/2000/svg" xmlns:xlink="http://www.w3.org/1999/xlink" x="0px" y="0px"
	 viewBox="0 0 112 112" style="enable-background:new 0 0 112 112;" xml:space="preserve">
<style type="text/css">
	.st0{fill:#FFFFFF;}
	.st1{fill:none;}
</style>
<g id="Group_84" transform="translate(-645.901 -393.901)">
	<path id="Polygon_1" class="st0" d="M731.5,449.9l-45.7,26.7v-53.4L731.5,449.9z"/>
	<g id="Ellipse_1" transform="translate(645.901 393.901)">
		<circle class="st1" cx="56" cy="56" r="56"/>
		<path class="st0" d="M56,112C25.1,112,0,86.9,0,56C0,25.1,25.1,0,56,0c30.9,0,56,25.1,56,56C112,86.9,86.9,112,56,112z M56,5
			C27.9,5,5,27.9,5,56c0,28.1,22.9,51,51,51c28.1,0,51-22.9,51-51C107,27.9,84.1,5,56,5z"/>
	</g>
</g>
</svg>
